   <svg
      width="100"
      height="33"
      viewBox="0 0 100 33"
      fill="none"
      xmlns="http://www.w3.org/2000/svg"
    >
      <path
        d="M18.5914 13.1751C17.5854 18.2306 2.75381 20.3259 2.64396 23.1784C2.64224 23.2166 2.5945 23.2341 2.56862 23.2057C2.06423 22.6576 1.62425 22.0516 1.25702 21.3981C0.777933 20.5459 1.0701 19.4501 1.92015 18.9708C1.92792 18.9662 1.93597 18.9613 1.94431 18.957C4.69576 17.439 14.7302 15.3416 16.7593 9.832C16.7702 9.80184 16.8087 9.79351 16.8306 9.81648C17.4747 10.4935 18.0231 11.261 18.453 12.0982C18.6207 12.4262 18.6656 12.804 18.5937 13.1653L18.5914 13.1751Z"
        fill="#F79611"
      />
      <path
        d="M14.3249 9.25361C11.0069 14.7997 0.952634 13.8105 0.194892 17.9785C0.186265 18.0276 0.115524 18.0241 0.109485 17.9753C0.0640491 17.5864 -0.000366211 16.9654 -0.000366211 16.5808C-0.000366211 15.4661 0.109197 14.3663 0.524734 13.3983C2.50062 8.78887 10.6788 10.2618 11.1144 6.91499C11.1176 6.89086 11.1395 6.87363 11.163 6.87708C12.1137 7.01322 13.0199 7.28724 13.8607 7.67701C14.4543 7.95275 14.695 8.69122 14.3346 9.23896C14.3312 9.24384 14.328 9.24844 14.3249 9.25361Z"
        fill="#EB7802"
      />
      <path
        d="M19.5754 16.3711C19.5759 16.3478 19.5575 16.3291 19.5342 16.3291C19.5181 16.3288 19.504 16.338 19.4974 16.3518C19.496 16.3533 19.496 16.355 19.496 16.3564C17.8241 20.9667 8.28571 22.3928 5.68897 23.9266C5.66424 23.9384 5.23203 24.1854 5.22685 24.6866C5.22196 25.1812 5.64325 25.44 5.69645 25.4665C6.83292 26.1808 8.2814 26.3448 9.71378 26.3589C15.1068 26.4129 19.5224 22.0677 19.5771 16.6534C19.5779 16.5601 19.5777 16.4647 19.5754 16.3711Z"
        fill="#FDD602"
      />
      <path
        d="M32.4241 6.98133C26.9322 6.74925 22.4329 11.2579 22.6914 16.7486C22.9111 21.4132 26.619 25.2365 31.2799 25.5955C33.2575 25.7486 35.1149 25.281 36.6853 24.3733V25.6245H41.3537V16.4197C41.3537 11.4075 37.4393 7.19503 32.4241 6.98133ZM36.6753 16.6018C36.5295 18.9214 34.6445 20.8054 32.3203 20.9516C29.5036 21.1305 27.1809 18.8106 27.3586 15.9957C27.5056 13.6758 29.3906 11.7916 31.7136 11.6456C34.5314 11.4684 36.8541 13.7884 36.6753 16.6018Z"
        fill="white"
      />
      <path
        d="M52.6509 7.00578C47.7674 7.24389 43.7811 11.6078 43.7811 16.4909V32.6387H48.4495V24.394C49.9124 25.2397 51.624 25.7027 53.4498 25.6389C58.3053 25.4706 62.2764 21.5088 62.4478 16.657C62.6399 11.1982 58.1322 6.73894 52.6509 7.00578ZM57.7613 16.7957C57.5456 18.9769 55.7782 20.7425 53.5938 20.9591C50.6419 21.2506 48.1806 18.7922 48.4725 15.8435C48.6888 13.662 50.4567 11.8964 52.6408 11.6813C55.593 11.3883 58.0543 13.847 57.7613 16.7957Z"
        fill="white"
      />
      <path d="M69.456 25.645H64.7882V6.9941H69.456V25.645Z" fill="white" />
      <path
        d="M88.2366 25.7603H83.5688L76.5659 16.4348L83.5688 7.10938H88.2366L81.2343 16.4348L88.2366 25.7603Z"
        fill="white"
      />
      <path
        d="M76.4872 25.6353H71.8199V6.98404H76.4872V25.6353Z"
        fill="white"
      />
      <path d="M95.129 25.645H90.4609V6.9941H95.129V25.645Z" fill="white" />
      <ellipse
        cx="67.0354"
        cy="2.33086"
        rx="2.33362"
        ry="2.33086"
        fill="white"
      />
      <ellipse
        cx="92.9156"
        cy="2.33086"
        rx="2.33362"
        ry="2.33086"
        fill="white"
      />
    </svg>